<?xml version="1.0" encoding="utf-8"?>
<!-- Generator: Adobe Illustrator 23.0.0, SVG Export Plug-In . SVG Version: 6.00 Build 0)  -->
<svg version="1.1" id="레이어_1" xmlns="http://www.w3.org/2000/svg" xmlns:xlink="http://www.w3.org/1999/xlink" x="0px"
	 y="0px" viewBox="0 0 1920 1080" style="enable-background:new 0 0 1920 1080;" xml:space="preserve">
<style type="text/css">
	.st0{fill:none;stroke:#000000;stroke-miterlimit:10;}
	.st1{fill:none;stroke:#000000;stroke-linejoin:round;stroke-miterlimit:10;}
	.st2{fill:#1D1D1B;}
	.st3{fill:none;stroke:#000000;stroke-width:2;stroke-miterlimit:10;}
</style>
<path class="st0" d="M1475.78,405.38c-4.2-29.44-8.82-60.92-40.66-93.76c-43.06-44.4-110.64-54.68-161.08-38.56
	c-16.4,5.24-89.7,38.62-121.75,128.65c-12.08,33.92-14.55,70.27-10.35,99.71c4.2,29.44,8.82,60.92,40.66,93.76
	c43.06,44.4,110.64,54.68,161.08,38.56c16.4-5.24,85.27-25.8,121.75-128.65C1477.47,471.16,1479.98,434.83,1475.78,405.38z
	 M1209.97,477.99c-16.33-56.83-13.88-99.12,17.2-140.76c7.7-10.33,19.63-17.19,32.51-17.19c63.6,0,132.35,54.1,148.07,108.79
	c15.8,54.98,14.02,96.36-14.26,136.71c-7.95,11.35-21.01,16.85-34.8,18.19C1297.07,589.72,1225.69,532.68,1209.97,477.99z"/>
<path class="st0" d="M1865.28,405.38c-4.2-29.44-8.82-60.92-40.66-93.76c-43.06-44.4-110.64-54.68-161.08-38.56
	c-16.4,5.24-89.7,38.62-121.75,128.65c-12.08,33.92-14.55,70.27-10.35,99.71c4.2,29.44,8.82,60.92,40.66,93.76
	c43.06,44.4,110.64,54.68,161.08,38.56c16.4-5.24,85.27-25.8,121.75-128.65C1866.97,471.16,1869.48,434.83,1865.28,405.38z
	 M1599.47,477.99c-16.33-56.83-13.88-99.12,17.2-140.76c7.7-10.33,19.63-17.19,32.51-17.19c63.6,0,132.35,54.1,148.07,108.79
	c15.8,54.98,14.02,96.36-14.26,136.71c-7.95,11.35-21.01,16.85-34.8,18.19C1686.58,589.72,1615.19,532.68,1599.47,477.99z"/>
<path class="st1" d="M813.96,492.91c-2.37-5.58-4.07-11.45-5.97-17.52c-16.93-54.07-14.61-94.85,14.36-136.08
	c9.1-12.96,24.14-20.69,39.97-20.4c39.53,0.72,73.58,12.65,99.85,35.09c3.6,3.08,15.15,13.04,23.15,20.55
	c3.78,3.55,9.61,3.72,13.62,0.43l43.39-35.51c4.82-3.95,5.02-11.3,0.39-15.46c-58.8-52.82-119.14-70.58-167.38-55.67
	c-46.26,14.3-97.18,53.57-125,128.93c-12.66,34.3-15.6,71.16-11.69,101.1c2.21,16.93,4.56,34.52,11.95,52.71
	c5.68,13.98,14.34,28.31,28.22,42.96c43.19,45.59,108.46,55.99,163.07,41.07c114.65-31.33,148.63-140.38,137.68-142.95
	c-42.98-2.24-35.95,101.09-133.9,94.75c-97.95-6.34-126.3-80.93-126.3-80.93L813.96,492.91z"/>
<g>
	<path class="st1" d="M1099.91,814.36c-30.3,0-46.92-21.2-46.92-73.69l4.66-147.39c0-50.68-2.31-68.29-4.75-73.72
		c-2.43-5.43-6.84-13.83-19.66-13.83c-15.69,0-29.52,6.91-36.57,12.34c-2.71,2.09-8.27,2.44-7.31-1.07
		c4.98-18.29,29.56-71.14,85.9-71.14c26.98,0,46.6,16.83,50.58,57.56c14.46-22.82,51.6-57.56,111.52-57.56
		c28.39,0,54.2,17.26,66.32,42.21c-14.38,18.98-35.92,31.28-61.87,34.26c-1.95,0.22-3.77-0.94-4.53-2.74c0-0.01-0.01-0.02-0.01-0.03
		c-6.15-14.53-33.92-22.11-51.59-22.11c-27.12,0-52.25,12.3-58.91,20.31c-0.06,0.07-0.13,0.13-0.2,0.2c0,0.54,0.02,1.05,0.02,1.6
		c0,0-6.68,95.47-6.68,127.67s2.97,90.93,3.58,97.92C1123.5,745.15,1127.98,814.36,1099.91,814.36z"/>
	<path class="st1" d="M1389.45,668.11c-2.29-5.4-3.94-11.08-5.78-16.95c-16.38-52.32-14.14-91.78,13.9-131.69
		c8.81-12.54,23.36-20.02,38.68-19.74c38.25,0.7,71.2,12.24,96.62,33.95c3.49,2.98,14.66,12.62,22.4,19.89
		c3.65,3.43,9.3,3.6,13.18,0.42l41.99-34.36c4.67-3.82,4.86-10.93,0.37-14.96c-56.9-51.12-115.29-68.3-161.98-53.87
		c-44.76,13.84-94.04,51.84-120.96,124.76c-12.25,33.19-15.1,68.86-11.31,97.84c2.14,16.38,4.41,33.41,11.56,51.01
		c5.5,13.53,13.87,27.4,27.3,41.57c41.79,44.12,104.96,54.18,157.8,39.74c110.95-30.32,143.83-135.85,133.23-138.33
		c-41.59-2.16-34.79,97.83-129.57,91.69c-94.79-6.13-122.22-78.32-122.22-78.32L1389.45,668.11z"/>
	<path class="st1" d="M981.84,730.84c-6.66,8.01-28.52,29.48-44.22,29.48c-12.82,0-22.41-5.96-29.48-22.11
		c-1.65-3.77-0.48-114.83-0.48-125.29c0,0,1.23-96.34-49.44-137.7c-82.5-67.34-181.59-20.71-224.38,26.54
		c0,0-27.39,27.7-19.31,33.92c25.6,19.7,22.64-13.88,43.09-25.98c39.1-23.12,93.11-40.97,146.7,4.64
		c29.7,25.28,31.9,79.47,31.9,79.47c-25.57-3.45-83.27-8.09-125.04,12.24c-68.37,33.29-125.41,116.97-80.9,170.99
		c32.34,39.26,77.92,34.86,101.03,34.86c33.71,0,81.94-32.44,104.96-55.87c0.96,4.61,2.27,9.06,3.94,13.29
		c9.94,25.15,32.02,42.58,60.56,42.58c33.13,0,83.39-61.71,88.37-80C990.11,728.4,984.03,728.21,981.84,730.84z M683.58,732.93
		c-15.37-31.52-7.62-83.24,42.09-100.31c27.54-9.45,71.55,1.48,112.71,17.31c-0.91,28.14-2.71,61.88-3.36,76
		c-0.35,7.69-0.58,12.28-0.58,12.28c0,0.91,0.03,1.8,0.06,2.7C786.68,764.17,707.03,781.02,683.58,732.93z"/>
	<path class="st1" d="M2055.76,734.58c-6.66,8.01-28.52,29.48-44.22,29.48c-12.82,0-22.41-5.96-29.48-22.11
		c-3.12-7.13,0-221.08,0-221.08h0.05c0-40.7-34.34-73.69-73.6-73.69c-59.92,0-97.06,34.75-111.52,57.56
		c0-180.22,18-309.49-50.58-309.49c-56.35,0-80.92,52.85-85.9,71.14c-0.96,3.51,4.6,3.15,7.31,1.07
		c7.06-5.43,20.88-12.34,36.57-12.34c12.82,0,17.22,8.4,19.66,13.83c2.43,5.43,4.75,274.97,4.75,325.64l-4.66,147.39
		c0,52.49,21.03,73.69,51.33,73.69c46.72-4.94,61.54-55.43,66.52-73.72c0.96-3.51-5.64-4.05-7.31-1.07
		c-3.2,5.7-11.31,12.79-17.19,14.92c-12.05,4.37-17.22-8.4-19.66-13.83c-2.43-5.43-3.46-36.86-3.46-73.71l3.37-147.4
		c0-0.54-0.02-1.06-0.02-1.6c0.06-0.07,0.14-0.13,0.2-0.2c6.66-8.01,31.79-20.31,58.91-20.31c17.66,0,45.43,7.58,51.59,22.11
		c6.15,14.53,4.7,29.31,4.7,73.72c0,44.41-4.75,147.37-4.75,147.37c0,40.7,27.07,73.69,66.33,73.69c33.13,0,83.39-61.71,88.37-80
		C2064.03,732.14,2057.95,731.95,2055.76,734.58z"/>
</g>
</svg>
